{"title":"Break My Fall 2011 DVDRiP AC3 XVid-REBORN","uid":6763855,"size":1482856405,"categoryP":"video","categoryS":"movies","magnet":"?xt=urn:btih:23e2bee93106bfa8e98f48a0f58f746134386104&amp;dn=Break+My+Fall+2011+DVDRiP+AC3+XVid-REBORN&amp;tr=udp%3A%2F%2Ftracker.openbittorrent.com%3A80&amp;tr=udp%3A%2F%2Fopen.demonii.com%3A1337&amp;tr=udp%3A%2F%2Ftracker.coppersurfer.tk%3A6969&amp;tr=udp%3A%2F%2Fexodus.desync.com%3A6969","seeders":3,"leechers":0,"uploader":"LegendET","files":2,"time":1319295109,"description":" &lt;a href=&quot;http://i.imgur.com/phqbw.jpg&quot; rel=&quot;nofollow&quot; target=&quot;_NEW&quot;&gt;http://i.imgur.com/phqbw.jpg&lt;/a&gt;\n\n\nBreak My Fall 2011 DVDRiP AC3 XViD - REBORN\n\nSOURCES THANKED:\nCan\\\\\\\\\\\\\\'t tell ya \n &lt;a href=&quot;\nhttp://www.imdb.com/title/tt1619622/&quot; rel=&quot;nofollow&quot; target=&quot;_NEW&quot;&gt;\nhttp://www.imdb.com/title/tt1619622/&lt;/a&gt;\n\nVideo\nID                               : 0\nFormat                           : MPEG-4 Visual\nFormat profile                   : Advanced Simple@L5\nFormat settings, BVOP            : 2\nFormat settings, QPel            : No\nFormat settings, GMC             : No warppoints\nFormat settings, Matrix          : Default (MPEG)\nMuxing mode                      : Packed bitstream\nCodec ID                         : XVID\nCodec ID/Hint                    : XviD\nDuration                         : 1h 41mn\nBit rate                         : 1 483 Kbps\nWidth                            : 720 pixels\nHeight                           : 384 pixels\nDisplay aspect ratio             : 1.875\nFrame rate                       : 25.000 fps\nColor space                      : YUV\nChroma subsampling               : 4:2:0\nBit depth                        : 8 bits\nScan type                        : Progressive\nCompression mode                 : Lossy\nBits/(Pixel*Frame)               : 0.215\nStream size                      : 1.06 GiB (76%)\nWriting library                  : XviD 64\n\nAudio\nID                               : 1\nFormat                           : AC-3\nFormat/Info                      : Audio Coding 3\nMode extension                   : CM (complete main)\nCodec ID                         : 2000\nDuration                         : 1h 41mn\nBit rate mode                    : Constant\nBit rate                         : 448 Kbps\nChannel(s)                       : 6 channels\nChannel positions                : Front: L C R, Side: L R, LFE\nSampling rate                    : 48.0 KHz\nBit depth                        : 16 bits\nCompression mode                 : Lossy\nStream size                      : 326 MiB (23%)\nAlignment                        : Aligned on interleaves\nInterleave, duration             : 40 ms (1.00 video frame)\nInterleave, preload duration     : 512 ms\n\n\nWORKDONE:\n\nA simple rip of a dvd really using an avs script and vdub .....The dvd was poor really\ncontained alot of noise so had to used a HQ noise reduction,whilst trying to maintain\nsome sharpness still.\nOther than that it was straight forward and the audio is untouched.\n &lt;a href=&quot;\nhttp://i.imgur.com/NK1Iw.png&quot; rel=&quot;nofollow&quot; target=&quot;_NEW&quot;&gt;\nhttp://i.imgur.com/NK1Iw.png&lt;/a&gt;\n &lt;a href=&quot;\nhttp://i.imgur.com/kyofp.png&quot; rel=&quot;nofollow&quot; target=&quot;_NEW&quot;&gt;\nhttp://i.imgur.com/kyofp.png&lt;/a&gt;\n &lt;a href=&quot;\nhttp://i.imgur.com/AqcQx.png&quot; rel=&quot;nofollow&quot; target=&quot;_NEW&quot;&gt;\nhttp://i.imgur.com/AqcQx.png&lt;/a&gt;\n &lt;a href=&quot;\nhttp://i.imgur.com/VhJ89.png&quot; rel=&quot;nofollow&quot; target=&quot;_NEW&quot;&gt;\nhttp://i.imgur.com/VhJ89.png&lt;/a&gt;","torrent":{"xt":"urn:btih:23e2bee93106bfa8e98f48a0f58f746134386104","amp;dn":"Break+My+Fall+2011+DVDRiP+AC3+XVid-REBORN","amp;tr":["udp%3A%2F%2Ftracker.openbittorrent.com%3A80","udp%3A%2F%2Fopen.demonii.com%3A1337","udp%3A%2F%2Ftracker.coppersurfer.tk%3A6969","udp%3A%2F%2Fexodus.desync.com%3A6969"],"infoHash":"23e2bee93106bfa8e98f48a0f58f746134386104","infoHashBuffer":{"type":"Buffer","data":[35,226,190,233,49,6,191,168,233,143,72,160,245,143,116,97,52,56,97,4]},"announce":[],"urlList":[]}}